<svg xmlns="http://www.w3.org/2000/svg" xmlns:xlink="http://www.w3.org/1999/xlink" version="1.1" x="0px" y="0px" viewBox="0 0 500 625" enable-background="new 0 0 500 500" xml:space="preserve"><path d="M303.69,500H39.31C17.634,500,0,482.365,0,460.689V39.311C0,17.635,17.634,0,39.31,0H303.69  C325.366,0,343,17.635,343,39.311V115c0,5.523-4.478,10-10,10s-10-4.477-10-10V39.311C323,28.663,314.338,20,303.69,20H39.31  C28.662,20,20,28.663,20,39.311v421.379C20,471.337,28.662,480,39.31,480H303.69c10.647,0,19.31-8.663,19.31-19.311V379  c0-5.522,4.478-10,10-10s10,4.478,10,10v81.689C343,482.365,325.366,500,303.69,500z"/><g><path d="M490,260H170c-5.523,0-10-4.478-10-10c0-5.523,4.477-10,10-10h320c5.522,0,10,4.477,10,10C500,255.522,495.522,260,490,260   z"/><g><path d="M151,259.573c-2.559,0-5.119-0.977-7.071-2.929c-3.905-3.905-3.905-10.237,0-14.142l84.145-84.146    c3.905-3.905,10.237-3.906,14.142,0s3.905,10.237,0,14.142l-84.145,84.146C156.119,258.597,153.559,259.573,151,259.573z"/><path d="M235.145,344.572c-2.559,0-5.119-0.977-7.071-2.929l-84.145-84.145c-3.905-3.905-3.905-10.237,0-14.143    c3.905-3.904,10.237-3.904,14.143,0l84.145,84.145c3.905,3.905,3.905,10.237,0,14.143    C240.263,343.596,237.704,344.572,235.145,344.572z"/></g></g><text x="0" y="515" fill="#000000" font-size="5px" font-weight="bold" font-family="'Helvetica Neue', Helvetica, Arial-Unicode, Arial, Sans-serif">Created by Olga Prikhodko</text><text x="0" y="520" fill="#000000" font-size="5px" font-weight="bold" font-family="'Helvetica Neue', Helvetica, Arial-Unicode, Arial, Sans-serif">from the Noun Project</text></svg>